<svg width="38" height="14" viewBox="0 0 38 14" fill="none" xmlns="http://www.w3.org/2000/svg">
<rect width="38" height="14" rx="7" fill="black"/>
<path d="M4.78063 5.73C4.78063 4.45 5.84063 3.56 7.38063 3.56C8.86063 3.56 9.80063 4.38 9.84063 5.7H8.56063C8.53063 5.07 8.08063 4.7 7.36063 4.7C6.57063 4.7 6.06063 5.08 6.06063 5.69C6.06063 6.21 6.34063 6.5 6.95063 6.64L8.10063 6.89C9.35063 7.16 9.96063 7.8 9.96063 8.89C9.96063 10.25 8.90063 11.13 7.29063 11.13C5.73063 11.13 4.71063 10.3 4.68063 8.99H5.96063C5.97063 9.61 6.47063 9.98 7.29063 9.98C8.14063 9.98 8.68063 9.61 8.68063 9C8.68063 8.51 8.43063 8.22 7.83063 8.09L6.67063 7.83C5.43063 7.56 4.78063 6.85 4.78063 5.73ZM17.7886 7.34C17.7886 9.56 16.3286 11.12 14.2286 11.12C12.1386 11.12 10.6986 9.57 10.6986 7.34C10.6986 5.12 12.1486 3.56 14.2386 3.56C16.3286 3.56 17.7886 5.11 17.7886 7.34ZM16.4386 7.34C16.4386 5.78 15.5786 4.79 14.2386 4.79C12.8986 4.79 12.0386 5.78 12.0386 7.34C12.0386 8.9 12.8986 9.89 14.2386 9.89C15.5786 9.89 16.4386 8.88 16.4386 7.34ZM25.6499 7.34C25.6499 9.56 24.1899 11.12 22.0899 11.12C19.9999 11.12 18.5599 9.57 18.5599 7.34C18.5599 5.12 20.0099 3.56 22.0999 3.56C24.1899 3.56 25.6499 5.11 25.6499 7.34ZM24.2999 7.34C24.2999 5.78 23.4399 4.79 22.0999 4.79C20.7599 4.79 19.8999 5.78 19.8999 7.34C19.8999 8.9 20.7599 9.89 22.0999 9.89C23.4399 9.89 24.2999 8.88 24.2999 7.34ZM28.1013 11H26.8413V3.69H28.1113L31.5412 8.87V3.69H32.8013V11H31.5412L28.1013 5.82V11Z" fill="#AB23FF"/>
</svg>
